<?xml version="1.0" encoding="utf-8"?>
<!-- Generator: Adobe Illustrator 19.2.1, SVG Export Plug-In . SVG Version: 6.00 Build 0)  -->
<svg version="1.1" id="Layer_1" xmlns="http://www.w3.org/2000/svg" xmlns:xlink="http://www.w3.org/1999/xlink" x="0px" y="0px"
	 viewBox="0 0 46.8 53.5" enable-background="new 0 0 46.8 53.5" xml:space="preserve">
<path fill="#FFFFFF" d="M35.2,33.5V13.2L22,0H4.4C2,0,0,2,0,4.4v35.2C0,42,2,44,4.4,44h21.8C27.1,39.1,30.6,35.1,35.2,33.5z
	 M19.8,3.3l12.1,12.1H19.8V3.3z M16,34.8l-3.1,3.1l-8.2-8.2l8.2-8.2l3.1,3.1l-5.1,5.1L16,34.8z M17.9,24.6l3.1-3.1l8.2,8.2L21,37.9
	l-3.1-3.1l5.1-5.1L17.9,24.6z"/>
<polygon fill="#FFFFFF" points="38.1,53.5 41.6,53.5 41.6,48.3 46.8,48.3 46.8,44.8 41.6,44.8 41.6,39.5 38.1,39.5 38.1,44.8 
	32.8,44.8 32.8,48.3 38.1,48.3 "/>
</svg>
