<?xml version="1.0" encoding="utf-8"?>
<!-- Generator: Adobe Illustrator 19.2.1, SVG Export Plug-In . SVG Version: 6.00 Build 0)  -->
<svg version="1.1" id="Layer_1" xmlns="http://www.w3.org/2000/svg" xmlns:xlink="http://www.w3.org/1999/xlink" x="0px" y="0px"
	 viewBox="0 0 16 20" enable-background="new 0 0 16 20" xml:space="preserve">
<path fill="#263238" d="M9,7h5.5L9,1.5V7 M2,0h8l6,6v12c0,1.1-0.9,2-2,2H2c-1.1,0-2-0.9-2-2V2C0,0.9,0.9,0,2,0 M2.1,13.5l3.7,3.7
	l1.4-1.4l-2.3-2.3l2.3-2.3L5.9,9.8L2.1,13.5 M13.3,13.5L9.5,9.8l-1.4,1.4l2.3,2.3l-2.3,2.3l1.4,1.4L13.3,13.5z"/>
</svg>
